<?xml version="1.0" encoding="utf-8" standalone="no"?>
<!DOCTYPE svg PUBLIC "-//W3C//DTD SVG 1.1//EN"
  "http://www.w3.org/Graphics/SVG/1.1/DTD/svg11.dtd">
<!-- Created with matplotlib (http://matplotlib.org/) -->
<svg height="432pt" version="1.1" viewBox="0 0 576 432" width="576pt" xmlns="http://www.w3.org/2000/svg" xmlns:xlink="http://www.w3.org/1999/xlink">
 <defs>
  <style type="text/css">
*{stroke-linecap:butt;stroke-linejoin:round;}
  </style>
 </defs>
 <g id="figure_1">
  <g id="patch_1">
   <path d="
M0 432
L576 432
L576 0
L0 0
z
" style="fill:#ffffff;"/>
  </g>
  <g id="axes_1">
   <g id="patch_2">
    <path d="
M72 388.8
L518.4 388.8
L518.4 43.2
L72 43.2
z
" style="fill:#ffffff;"/>
   </g>
   <g id="line2d_1">
    <path clip-path="url(#p7ff5b81e1d)" d="
M72 290.057
L75.9273 294.257
L77.6727 295.832
L79.4182 297.084
L80.7273 297.76
L82.0364 298.182
L83.3455 298.333
L84.6545 298.203
L85.9636 297.795
L87.2727 297.118
L88.5818 296.191
L90.3273 294.619
L92.5091 292.239
L99.4909 284.096
L101.236 282.581
L102.545 281.719
L103.855 281.13
L105.164 280.837
L106.473 280.855
L107.782 281.186
L109.091 281.825
L110.4 282.753
L111.709 283.943
L113.455 285.874
L115.636 288.682
L120.873 295.703
L122.618 297.634
L123.927 298.813
L125.236 299.712
L126.545 300.294
L127.418 300.495
L128.291 300.54
L129.164 300.426
L130.036 300.154
L131.345 299.455
L132.655 298.425
L133.964 297.092
L135.709 294.915
L137.891 291.728
L143.564 283.076
L145.309 280.938
L146.618 279.658
L147.927 278.711
L148.8 278.284
L149.673 278.029
L150.545 277.955
L151.418 278.062
L152.291 278.353
L153.164 278.825
L154.473 279.861
L155.782 281.265
L157.091 282.996
L158.836 285.72
L161.018 289.576
L165.382 297.431
L167.127 300.098
L168.436 301.753
L169.745 303.044
L170.618 303.675
L171.491 304.108
L172.364 304.334
L173.236 304.347
L174.109 304.143
L174.982 303.722
L175.855 303.088
L176.727 302.246
L178.036 300.618
L179.345 298.59
L181.091 295.373
L183.273 290.779
L188.073 280.418
L189.818 277.281
L191.127 275.36
L192.436 273.895
L193.309 273.202
L194.182 272.753
L195.055 272.559
L195.927 272.628
L196.8 272.963
L197.673 273.564
L198.545 274.427
L199.418 275.543
L200.727 277.665
L202.036 280.271
L203.782 284.37
L205.964 290.178
L210.327 302.069
L212.073 306.129
L213.382 308.654
L214.691 310.621
L215.564 311.581
L216.436 312.233
L217.309 312.562
L218.182 312.556
L219.055 312.206
L219.927 311.511
L220.8 310.472
L221.673 309.097
L222.545 307.399
L223.855 304.286
L225.164 300.565
L226.909 294.84
L229.527 285.245
L233.018 272.486
L234.764 267
L236.073 263.589
L236.945 261.73
L237.818 260.247
L238.691 259.175
L239.564 258.542
L240 258.398
L240.436 258.372
L240.873 258.465
L241.745 259.019
L242.618 260.066
L243.491 261.609
L244.364 263.64
L245.236 266.148
L246.545 270.755
L247.855 276.289
L249.6 284.876
L251.782 296.97
L256.582 324.104
L258.327 332.301
L259.636 337.267
L260.509 339.881
L261.382 341.859
L262.255 343.141
L262.691 343.503
L263.127 343.671
L263.564 343.639
L264 343.4
L264.436 342.951
L264.873 342.287
L265.745 340.296
L266.618 337.405
L267.491 333.595
L268.364 328.859
L269.673 320.03
L270.982 309.176
L272.291 296.398
L274.036 276.629
L275.782 254.184
L277.964 223.306
L285.818 108.941
L287.564 88.06
L288.873 74.5618
L290.182 63.2198
L291.491 54.2617
L292.364 49.7053
L293.236 46.3309
L294.109 44.1689
L294.545 43.5491
L294.982 43.2388
L295.418 43.2388
L295.855 43.5491
L296.291 44.1689
L296.727 45.0969
L297.6 47.8682
L298.473 51.8381
L299.345 56.9706
L300.218 63.2198
L301.527 74.5618
L302.836 88.06
L304.582 108.941
L306.764 138.633
L309.818 184.015
L313.745 242.145
L315.927 271.247
L317.673 291.735
L318.982 305.124
L320.291 316.633
L321.6 326.145
L322.909 333.595
L323.782 337.405
L324.655 340.296
L325.527 342.287
L325.964 342.951
L326.4 343.4
L326.836 343.639
L327.273 343.671
L327.709 343.503
L328.145 343.141
L328.582 342.591
L329.455 340.953
L330.327 338.649
L331.2 335.742
L332.509 330.402
L333.818 324.104
L336 312.176
L341.236 282.618
L342.982 274.349
L344.291 269.111
L345.6 264.836
L346.473 262.564
L347.345 260.776
L348.218 259.481
L349.091 258.681
L349.964 258.372
L350.4 258.398
L351.273 258.802
L352.145 259.658
L353.018 260.939
L353.891 262.614
L355.2 265.787
L356.509 269.628
L358.255 275.526
L361.745 288.52
L363.927 296.34
L365.673 301.867
L366.982 305.395
L368.291 308.288
L369.164 309.826
L370.036 311.034
L370.909 311.902
L371.782 312.424
L372.655 312.601
L373.527 312.439
L374.4 311.946
L375.273 311.138
L376.145 310.033
L377.455 307.87
L378.764 305.18
L380.509 300.959
L383.127 293.832
L386.618 284.37
L388.364 280.271
L389.673 277.665
L390.982 275.543
L391.855 274.427
L392.727 273.564
L393.6 272.963
L394.473 272.628
L395.345 272.559
L396.218 272.753
L397.091 273.202
L397.964 273.895
L398.836 274.818
L400.145 276.594
L401.455 278.777
L403.2 282.176
L405.818 287.873
L408.873 294.495
L410.618 297.836
L411.927 299.983
L413.236 301.751
L414.545 303.088
L415.418 303.722
L416.291 304.143
L417.164 304.347
L418.036 304.334
L418.909 304.108
L419.782 303.675
L420.655 303.044
L421.964 301.753
L423.273 300.098
L425.018 297.431
L427.2 293.604
L432 285.001
L433.745 282.386
L435.055 280.758
L436.364 279.473
L437.673 278.567
L438.545 278.185
L439.418 277.985
L440.291 277.969
L441.164 278.134
L442.036 278.476
L443.345 279.303
L444.655 280.477
L445.964 281.952
L447.709 284.292
L450.327 288.294
L454.255 294.312
L456 296.587
L457.309 298.012
L458.618 299.148
L459.927 299.96
L461.236 300.426
L462.109 300.54
L462.982 300.495
L463.855 300.294
L465.164 299.712
L466.473 298.813
L467.782 297.634
L469.527 295.703
L471.709 292.886
L476.945 285.874
L478.691 283.943
L480 282.753
L481.309 281.825
L482.618 281.186
L483.927 280.855
L485.236 280.837
L486.545 281.13
L487.855 281.719
L489.164 282.581
L490.473 283.682
L492.218 285.453
L494.836 288.527
L499.2 293.712
L500.945 295.449
L502.691 296.835
L504 297.598
L505.309 298.098
L506.618 298.321
L507.927 298.263
L509.236 297.93
L510.545 297.336
L511.855 296.504
L513.6 295.079
L515.782 292.921
L518.4 290.057
L518.4 290.057" style="fill:none;stroke:#0000ff;stroke-linecap:square;"/>
   </g>
   <g id="patch_3">
    <path d="
M72 43.2
L518.4 43.2" style="fill:none;stroke:#000000;stroke-linecap:square;stroke-linejoin:miter;"/>
   </g>
   <g id="patch_4">
    <path d="
M518.4 388.8
L518.4 43.2" style="fill:none;stroke:#000000;stroke-linecap:square;stroke-linejoin:miter;"/>
   </g>
   <g id="patch_5">
    <path d="
M72 388.8
L518.4 388.8" style="fill:none;stroke:#000000;stroke-linecap:square;stroke-linejoin:miter;"/>
   </g>
   <g id="patch_6">
    <path d="
M72 388.8
L72 43.2" style="fill:none;stroke:#000000;stroke-linecap:square;stroke-linejoin:miter;"/>
   </g>
   <g id="matplotlib.axis_1">
    <g id="xtick_1">
     <g id="line2d_2">
      <defs>
       <path d="
M0 0
L0 -4" id="m93b0483c22" style="stroke:#000000;stroke-width:0.5;"/>
      </defs>
      <g>
       <use style="stroke:#000000;stroke-width:0.5;" x="72.0" xlink:href="#m93b0483c22" y="388.8"/>
      </g>
     </g>
     <g id="line2d_3">
      <defs>
       <path d="
M0 0
L0 4" id="m741efc42ff" style="stroke:#000000;stroke-width:0.5;"/>
      </defs>
      <g>
       <use style="stroke:#000000;stroke-width:0.5;" x="72.0" xlink:href="#m741efc42ff" y="43.2"/>
      </g>
     </g>
     <g id="text_1">
      <!-- −10 -->
      <defs>
       <path d="
M62.0625 27.6875
L12.3125 27.6875
L12.3125 35.1562
L62.0625 35.1562
z
" id="MicrosoftYaHei-2212"/>
       <path d="
M52.5938 0
L9.23438 0
L9.23438 8.25
L26.1719 8.25
L26.1719 65.6719
L8.79688 60.6406
L8.79688 69.4375
L35.6875 77.25
L35.6875 8.25
L52.5938 8.25
z
" id="MicrosoftYaHei-31"/>
       <path d="
M4.4375 36.3281
Q4.4375 56.3438 11.0781 66.625
Q17.7188 76.9062 30.3281 76.9062
Q54.3438 76.9062 54.3438 38.1406
Q54.3438 19 47.5781 8.85938
Q40.8281 -1.26562 28.6094 -1.26562
Q17.0938 -1.26562 10.7656 8.34375
Q4.4375 17.9688 4.4375 36.3281
M14.2031 36.7656
Q14.2031 6.64062 29.5 6.64062
Q44.5312 6.64062 44.5312 37.25
Q44.5312 68.9531 29.7812 68.9531
Q14.2031 68.9531 14.2031 36.7656" id="MicrosoftYaHei-30"/>
      </defs>
      <g transform="translate(61.509375 402.3925)scale(0.12 -0.12)">
       <use xlink:href="#MicrosoftYaHei-2212"/>
       <use x="74.169921875" xlink:href="#MicrosoftYaHei-31"/>
       <use x="132.8125" xlink:href="#MicrosoftYaHei-30"/>
      </g>
     </g>
    </g>
    <g id="xtick_2">
     <g id="line2d_4">
      <g>
       <use style="stroke:#000000;stroke-width:0.5;" x="183.6" xlink:href="#m93b0483c22" y="388.8"/>
      </g>
     </g>
     <g id="line2d_5">
      <g>
       <use style="stroke:#000000;stroke-width:0.5;" x="183.6" xlink:href="#m741efc42ff" y="43.2"/>
      </g>
     </g>
     <g id="text_2">
      <!-- −5 -->
      <defs>
       <path d="
M8.64062 11.625
Q16.2656 6.64062 24.5156 6.64062
Q32.3281 6.64062 37.1094 11
Q41.8906 15.375 41.8906 22.6094
Q41.8906 29.8906 37.0312 33.8906
Q32.1719 37.8906 22.9531 37.8906
Q18.5 37.8906 10.9844 37.2031
L10.9844 75.6406
L48.1875 75.6406
L48.1875 67.1875
L19.875 67.1875
L19.875 45.7969
Q24.125 46.0469 26.2656 46.0469
Q38.2344 46.0469 44.9219 39.9844
Q51.6094 33.9375 51.6094 23.2969
Q51.6094 12.3125 44.4219 5.51562
Q37.25 -1.26562 24.6094 -1.26562
Q14.0156 -1.26562 8.64062 1.85938
z
" id="MicrosoftYaHei-35"/>
      </defs>
      <g transform="translate(176.791875 402.3925)scale(0.12 -0.12)">
       <use xlink:href="#MicrosoftYaHei-2212"/>
       <use x="74.169921875" xlink:href="#MicrosoftYaHei-35"/>
      </g>
     </g>
    </g>
    <g id="xtick_3">
     <g id="line2d_6">
      <g>
       <use style="stroke:#000000;stroke-width:0.5;" x="295.2" xlink:href="#m93b0483c22" y="388.8"/>
      </g>
     </g>
     <g id="line2d_7">
      <g>
       <use style="stroke:#000000;stroke-width:0.5;" x="295.2" xlink:href="#m741efc42ff" y="43.2"/>
      </g>
     </g>
     <g id="text_3">
      <!-- 0 -->
      <g transform="translate(292.205625 402.3925)scale(0.12 -0.12)">
       <use xlink:href="#MicrosoftYaHei-30"/>
      </g>
     </g>
    </g>
    <g id="xtick_4">
     <g id="line2d_8">
      <g>
       <use style="stroke:#000000;stroke-width:0.5;" x="406.8" xlink:href="#m93b0483c22" y="388.8"/>
      </g>
     </g>
     <g id="line2d_9">
      <g>
       <use style="stroke:#000000;stroke-width:0.5;" x="406.8" xlink:href="#m741efc42ff" y="43.2"/>
      </g>
     </g>
     <g id="text_4">
      <!-- 5 -->
      <g transform="translate(404.221875 402.3925)scale(0.12 -0.12)">
       <use xlink:href="#MicrosoftYaHei-35"/>
      </g>
     </g>
    </g>
    <g id="xtick_5">
     <g id="line2d_10">
      <g>
       <use style="stroke:#000000;stroke-width:0.5;" x="518.4" xlink:href="#m93b0483c22" y="388.8"/>
      </g>
     </g>
     <g id="line2d_11">
      <g>
       <use style="stroke:#000000;stroke-width:0.5;" x="518.4" xlink:href="#m741efc42ff" y="43.2"/>
      </g>
     </g>
     <g id="text_5">
      <!-- 10 -->
      <g transform="translate(512.14875 402.3925)scale(0.12 -0.12)">
       <use xlink:href="#MicrosoftYaHei-31"/>
       <use x="58.642578125" xlink:href="#MicrosoftYaHei-30"/>
      </g>
     </g>
    </g>
   </g>
   <g id="matplotlib.axis_2">
    <g id="ytick_1">
     <g id="line2d_12">
      <defs>
       <path d="
M0 0
L4 0" id="m728421d6d4" style="stroke:#000000;stroke-width:0.5;"/>
      </defs>
      <g>
       <use style="stroke:#000000;stroke-width:0.5;" x="72.0" xlink:href="#m728421d6d4" y="388.8"/>
      </g>
     </g>
     <g id="line2d_13">
      <defs>
       <path d="
M0 0
L-4 0" id="mcb0005524f" style="stroke:#000000;stroke-width:0.5;"/>
      </defs>
      <g>
       <use style="stroke:#000000;stroke-width:0.5;" x="518.4" xlink:href="#mcb0005524f" y="388.8"/>
      </g>
     </g>
     <g id="text_6">
      <!-- −0.4 -->
      <defs>
       <path d="
M55.0781 19.625
L45.4062 19.625
L45.4062 0
L36.1406 0
L36.1406 19.625
L0.875 19.625
L0.875 25.8281
L34.3281 75.6406
L45.4062 75.6406
L45.4062 27.2031
L55.0781 27.2031
z

M36.1406 27.2031
L36.1406 58.8906
Q36.1406 62.25 36.3281 66.6562
L36.1406 66.6562
Q35.4531 64.7969 33.25 60.8438
L10.75 27.2031
z
" id="MicrosoftYaHei-34"/>
       <path d="
M5.8125 5.03125
Q5.8125 7.67188 7.60938 9.46875
Q9.42188 11.2812 12.1094 11.2812
Q14.8438 11.2812 16.6406 9.45312
Q18.4531 7.625 18.4531 5.03125
Q18.4531 2.48438 16.6406 0.65625
Q14.8438 -1.17188 12.0625 -1.17188
Q9.375 -1.17188 7.59375 0.65625
Q5.8125 2.48438 5.8125 5.03125" id="MicrosoftYaHei-2e"/>
      </defs>
      <g transform="translate(44.04125 392.1046875)scale(0.12 -0.12)">
       <use xlink:href="#MicrosoftYaHei-2212"/>
       <use x="74.169921875" xlink:href="#MicrosoftYaHei-30"/>
       <use x="132.8125" xlink:href="#MicrosoftYaHei-2e"/>
       <use x="156.884765625" xlink:href="#MicrosoftYaHei-34"/>
      </g>
     </g>
    </g>
    <g id="ytick_2">
     <g id="line2d_14">
      <g>
       <use style="stroke:#000000;stroke-width:0.5;" x="72.0" xlink:href="#m728421d6d4" y="339.428571429"/>
      </g>
     </g>
     <g id="line2d_15">
      <g>
       <use style="stroke:#000000;stroke-width:0.5;" x="518.4" xlink:href="#mcb0005524f" y="339.428571429"/>
      </g>
     </g>
     <g id="text_7">
      <!-- −0.2 -->
      <defs>
       <path d="
M51.1719 0
L5.17188 0
L5.17188 8.29688
L27.1562 30.2188
Q36.2344 39.3125 39.3125 44.6094
Q42.3906 49.9062 42.3906 55.5625
Q42.3906 62.0156 38.7656 65.4531
Q35.1562 68.8906 28.3281 68.8906
Q18.2188 68.8906 9.03125 60.2969
L9.03125 70.0156
Q17.9688 76.9062 29.8281 76.9062
Q40.0469 76.9062 45.9531 71.3906
Q51.8594 65.875 51.8594 56.5469
Q51.8594 49.5156 48.0625 42.75
Q44.2812 35.9844 33.7344 25.5312
L16.5 8.6875
L16.5 8.5
L51.1719 8.5
z
" id="MicrosoftYaHei-32"/>
      </defs>
      <g transform="translate(44.4275 342.733258929)scale(0.12 -0.12)">
       <use xlink:href="#MicrosoftYaHei-2212"/>
       <use x="74.169921875" xlink:href="#MicrosoftYaHei-30"/>
       <use x="132.8125" xlink:href="#MicrosoftYaHei-2e"/>
       <use x="156.884765625" xlink:href="#MicrosoftYaHei-32"/>
      </g>
     </g>
    </g>
    <g id="ytick_3">
     <g id="line2d_16">
      <g>
       <use style="stroke:#000000;stroke-width:0.5;" x="72.0" xlink:href="#m728421d6d4" y="290.057142857"/>
      </g>
     </g>
     <g id="line2d_17">
      <g>
       <use style="stroke:#000000;stroke-width:0.5;" x="518.4" xlink:href="#mcb0005524f" y="290.057142857"/>
      </g>
     </g>
     <g id="text_8">
      <!-- 0.0 -->
      <g transform="translate(52.085 293.361830357)scale(0.12 -0.12)">
       <use xlink:href="#MicrosoftYaHei-30"/>
       <use x="58.642578125" xlink:href="#MicrosoftYaHei-2e"/>
       <use x="82.71484375" xlink:href="#MicrosoftYaHei-30"/>
      </g>
     </g>
    </g>
    <g id="ytick_4">
     <g id="line2d_18">
      <g>
       <use style="stroke:#000000;stroke-width:0.5;" x="72.0" xlink:href="#m728421d6d4" y="240.685714286"/>
      </g>
     </g>
     <g id="line2d_19">
      <g>
       <use style="stroke:#000000;stroke-width:0.5;" x="518.4" xlink:href="#mcb0005524f" y="240.685714286"/>
      </g>
     </g>
     <g id="text_9">
      <!-- 0.2 -->
      <g transform="translate(52.383125 243.990401786)scale(0.12 -0.12)">
       <use xlink:href="#MicrosoftYaHei-30"/>
       <use x="58.642578125" xlink:href="#MicrosoftYaHei-2e"/>
       <use x="82.71484375" xlink:href="#MicrosoftYaHei-32"/>
      </g>
     </g>
    </g>
    <g id="ytick_5">
     <g id="line2d_20">
      <g>
       <use style="stroke:#000000;stroke-width:0.5;" x="72.0" xlink:href="#m728421d6d4" y="191.314285714"/>
      </g>
     </g>
     <g id="line2d_21">
      <g>
       <use style="stroke:#000000;stroke-width:0.5;" x="518.4" xlink:href="#mcb0005524f" y="191.314285714"/>
      </g>
     </g>
     <g id="text_10">
      <!-- 0.4 -->
      <g transform="translate(51.996875 194.618973214)scale(0.12 -0.12)">
       <use xlink:href="#MicrosoftYaHei-30"/>
       <use x="58.642578125" xlink:href="#MicrosoftYaHei-2e"/>
       <use x="82.71484375" xlink:href="#MicrosoftYaHei-34"/>
      </g>
     </g>
    </g>
    <g id="ytick_6">
     <g id="line2d_22">
      <g>
       <use style="stroke:#000000;stroke-width:0.5;" x="72.0" xlink:href="#m728421d6d4" y="141.942857143"/>
      </g>
     </g>
     <g id="line2d_23">
      <g>
       <use style="stroke:#000000;stroke-width:0.5;" x="518.4" xlink:href="#mcb0005524f" y="141.942857143"/>
      </g>
     </g>
     <g id="text_11">
      <!-- 0.6 -->
      <defs>
       <path d="
M49.7031 65.9219
Q43.7969 68.9531 37.3594 68.9531
Q27.5469 68.9531 21.5781 60.4062
Q15.625 51.8594 15.5312 37.0625
L15.7656 37.0625
Q21.1406 47.4688 32.9062 47.4688
Q42.7188 47.4688 48.5781 41.0625
Q54.4375 34.6719 54.4375 24.0781
Q54.4375 12.9844 47.6719 5.85938
Q40.9219 -1.26562 30.4219 -1.26562
Q18.8906 -1.26562 12.3281 7.73438
Q5.76562 16.75 5.76562 33.2969
Q5.76562 53.3281 14.375 65.1094
Q23 76.9062 37.0625 76.9062
Q45.125 76.9062 49.7031 74.7031
z

M16.1094 24.75
Q16.1094 17.2812 20.0938 11.9531
Q24.0781 6.64062 30.6719 6.64062
Q36.9219 6.64062 40.8281 11.2344
Q44.7344 15.8281 44.7344 23.0469
Q44.7344 30.8594 41.0469 35.2031
Q37.3594 39.5469 30.5625 39.5469
Q24.125 39.5469 20.1094 35.1562
Q16.1094 30.7656 16.1094 24.75" id="MicrosoftYaHei-36"/>
      </defs>
      <g transform="translate(52.07375 145.247544643)scale(0.12 -0.12)">
       <use xlink:href="#MicrosoftYaHei-30"/>
       <use x="58.642578125" xlink:href="#MicrosoftYaHei-2e"/>
       <use x="82.71484375" xlink:href="#MicrosoftYaHei-36"/>
      </g>
     </g>
    </g>
    <g id="ytick_7">
     <g id="line2d_24">
      <g>
       <use style="stroke:#000000;stroke-width:0.5;" x="72.0" xlink:href="#m728421d6d4" y="92.5714285714"/>
      </g>
     </g>
     <g id="line2d_25">
      <g>
       <use style="stroke:#000000;stroke-width:0.5;" x="518.4" xlink:href="#mcb0005524f" y="92.5714285714"/>
      </g>
     </g>
     <g id="text_12">
      <!-- 0.8 -->
      <defs>
       <path d="
M21.3906 39.7969
Q7.85938 46.0938 7.85938 58.0625
Q7.85938 66.4062 14.2031 71.6562
Q20.5625 76.9062 30.4219 76.9062
Q39.4531 76.9062 45.3125 71.9688
Q51.1719 67.0469 51.1719 59.2344
Q51.1719 46.625 37.0625 39.8438
L37.0625 39.6562
Q53.6094 33.6875 53.6094 19.3438
Q53.6094 9.90625 46.7969 4.3125
Q39.9844 -1.26562 27.7812 -1.26562
Q17.7812 -1.26562 11.4688 4.25
Q5.17188 9.76562 5.17188 18.5625
Q5.17188 33.0156 21.3906 39.5938
z

M41.5 58.1094
Q41.5 63.1875 38.3281 66.1094
Q35.1562 69.0469 29.7344 69.0469
Q24.6562 69.0469 21.0938 65.9844
Q17.5312 62.9375 17.5312 58.2031
Q17.5312 48.7344 29.3906 43.7969
Q41.5 48.8281 41.5 58.1094
M28.8125 35.25
Q14.7969 29.5938 14.7969 19.0469
Q14.7969 13.5781 18.8906 10.0625
Q23 6.54688 29.5938 6.54688
Q35.9844 6.54688 39.9844 10.0312
Q44 13.5312 44 18.75
Q44 29.7344 28.8125 35.25" id="MicrosoftYaHei-38"/>
      </defs>
      <g transform="translate(52.173125 95.8761160714)scale(0.12 -0.12)">
       <use xlink:href="#MicrosoftYaHei-30"/>
       <use x="58.642578125" xlink:href="#MicrosoftYaHei-2e"/>
       <use x="82.71484375" xlink:href="#MicrosoftYaHei-38"/>
      </g>
     </g>
    </g>
    <g id="ytick_8">
     <g id="line2d_26">
      <g>
       <use style="stroke:#000000;stroke-width:0.5;" x="72.0" xlink:href="#m728421d6d4" y="43.2"/>
      </g>
     </g>
     <g id="line2d_27">
      <g>
       <use style="stroke:#000000;stroke-width:0.5;" x="518.4" xlink:href="#mcb0005524f" y="43.2"/>
      </g>
     </g>
     <g id="text_13">
      <!-- 1.0 -->
      <g transform="translate(52.608125 46.5046875)scale(0.12 -0.12)">
       <use xlink:href="#MicrosoftYaHei-31"/>
       <use x="58.642578125" xlink:href="#MicrosoftYaHei-2e"/>
       <use x="82.71484375" xlink:href="#MicrosoftYaHei-30"/>
      </g>
     </g>
    </g>
   </g>
  </g>
 </g>
 <defs>
  <clipPath id="p7ff5b81e1d">
   <rect height="345.6" width="446.4" x="72.0" y="43.2"/>
  </clipPath>
 </defs>
</svg>
